<?xml version="1.0" standalone="no"?>
<!DOCTYPE svg PUBLIC "-//W3C//DTD SVG 20010904//EN"
 "http://www.w3.org/TR/2001/REC-SVG-20010904/DTD/svg10.dtd">
<svg version="1.0" xmlns="http://www.w3.org/2000/svg"
 width="293.000000pt" height="287.000000pt" viewBox="0 0 293.000000 287.000000"
 preserveAspectRatio="xMidYMid meet">
<metadata>
Created by potrace 1.16, written by Peter Selinger 2001-2019
</metadata>
<g transform="translate(0.000000,287.000000) scale(0.100000,-0.100000)"
fill="#000000" stroke="none">
<path d="M0 1435 l0 -1435 1465 0 1465 0 0 1435 0 1435 -1465 0 -1465 0 0
-1435z m1490 1075 c9 -17 8 -21 -7 -26 -124 -40 -202 -119 -306 -314 -43 -81
-107 -245 -107 -276 0 -22 14 -17 33 14 13 19 17 21 13 7 -65 -252 -3 -544
159 -755 115 -149 310 -287 467 -330 129 -34 256 -52 327 -45 90 10 193 31
238 51 21 9 51 18 67 20 16 2 34 11 41 20 6 9 18 15 26 12 8 -3 27 1 43 9 27
14 28 14 22 -3 -6 -14 -1 -13 19 6 17 16 25 32 22 47 -3 15 3 24 21 33 27 12
36 7 47 -27 5 -18 1 -25 -17 -32 -13 -5 -44 -40 -68 -77 -24 -38 -80 -105
-125 -150 -144 -145 -298 -245 -470 -303 -130 -44 -216 -54 -395 -48 -184 6
-276 28 -435 106 -191 94 -387 270 -473 426 -41 73 -101 236 -117 315 -10 48
-2 37 29 -45 37 -94 88 -206 93 -202 2 2 -5 24 -16 48 -48 110 -29 105 28 -7
130 -255 341 -449 582 -535 35 -12 69 -26 74 -30 6 -4 48 -15 95 -24 64 -13
113 -16 200 -12 129 6 260 26 260 38 0 5 9 9 20 9 47 0 186 66 289 137 72 50
181 143 181 155 0 11 -45 -19 -91 -61 -73 -65 -224 -157 -291 -176 -13 -4 17
14 66 40 49 26 95 52 101 58 7 7 40 32 74 56 34 24 59 46 57 48 -2 2 -47 -14
-99 -36 -116 -49 -253 -76 -341 -66 -127 15 -273 66 -341 119 -19 15 -18 15
18 10 20 -3 37 -3 37 0 0 3 -20 19 -44 37 -30 21 -43 36 -39 46 5 12 1 14 -18
8 -19 -5 -21 -4 -9 4 13 9 12 12 -7 17 -13 4 -23 10 -23 15 0 5 -5 9 -11 9 -7
0 -20 9 -30 21 -9 11 -21 21 -26 21 -23 2 -116 74 -179 139 -180 189 -250 338
-275 583 -12 122 -6 232 17 316 19 67 74 174 114 221 l29 34 -29 -85 c-64
-191 -75 -393 -29 -535 28 -88 37 -61 13 43 -45 197 -6 435 100 617 43 72 40
48 -4 -36 -50 -95 -88 -227 -94 -326 -2 -43 -2 -64 0 -48 8 45 24 55 24 15 0
-34 14 -69 23 -60 3 3 8 45 11 95 4 49 12 110 18 135 30 121 104 259 183 348
26 29 44 52 41 52 -35 0 -114 -103 -188 -245 -26 -49 -48 -87 -48 -84 0 15 73
165 100 204 37 54 37 59 1 41 -63 -33 -214 -222 -273 -341 -13 -27 -41 -76
-62 -109 -59 -90 -104 -193 -128 -289 -17 -71 -24 -85 -35 -76 -7 7 -13 17
-12 23 4 33 -2 76 -10 72 -5 -4 -15 -29 -22 -57 -17 -66 -27 -42 -28 64 -1 42
-5 77 -9 77 -10 0 -31 -140 -33 -215 l-1 -50 -9 60 c-5 32 -13 73 -19 90 -25
77 56 302 172 473 58 86 126 155 232 237 43 33 90 70 105 82 l26 22 -25 -6
c-14 -3 -22 -3 -19 1 4 4 17 8 30 10 30 3 79 26 79 37 0 5 7 5 17 2 10 -4 14
-2 10 4 -7 11 16 20 148 59 59 17 155 41 172 43 7 0 17 -8 23 -19z m-728
-1554 c127 -167 253 -274 423 -356 133 -65 227 -90 355 -97 113 -6 176 3 305
41 98 29 289 76 293 71 6 -6 -133 -85 -195 -110 -214 -87 -379 -102 -558 -51
-237 66 -430 194 -573 378 -45 58 -112 167 -112 182 0 17 20 -1 62 -58z"/>
<path d="M1409 944 c32 -57 93 -95 236 -149 203 -77 540 -79 686 -4 23 11 39
22 37 24 -2 2 -66 -12 -143 -31 -118 -29 -157 -34 -253 -34 -104 0 -124 3
-217 34 -109 37 -197 78 -280 130 -81 52 -78 51 -66 30z"/>
</g>
</svg>
